<?xml version="1.0" encoding="UTF-8" standalone="no"?>
<!DOCTYPE svg PUBLIC "-//W3C//DTD SVG 1.1//EN"
 "http://www.w3.org/Graphics/SVG/1.1/DTD/svg11.dtd">
<!-- Generated by graphviz version 3.0.0 (20220226.1711)
 -->
<!-- Title: D Pages: 1 -->
<svg width="998pt" height="783pt"
 viewBox="0.00 0.00 997.50 783.00" xmlns="http://www.w3.org/2000/svg" xmlns:xlink="http://www.w3.org/1999/xlink">
<g id="graph0" class="graph" transform="scale(1 1) rotate(0) translate(4 779)">
<title>D</title>
<polygon fill="white" stroke="transparent" points="-4,4 -4,-779 993.5,-779 993.5,4 -4,4"/>
<g id="clust2" class="cluster">
<title>cluster_vote</title>
<polygon fill="none" stroke="black" stroke-dasharray="1,5" points="335.5,-296 335.5,-659 451.5,-659 451.5,-296 335.5,-296"/>
<text text-anchor="middle" x="393.5" y="-643.8" font-family="Times New Roman,serif" font-size="14.00">vote</text>
</g>
<g id="clust1" class="cluster">
<title>cluster_lockout</title>
<polygon fill="none" stroke="black" points="667.5,-8 667.5,-659 783.5,-659 783.5,-8 667.5,-8"/>
<text text-anchor="middle" x="725.5" y="-643.8" font-family="Times New Roman,serif" font-size="14.00">lockout</text>
</g>
<!-- 153103884 -->
<g id="node1" class="node">
<title>153103884</title>
<ellipse fill="none" stroke="red" cx="393.5" cy="-610" rx="50.09" ry="18"/>
<text text-anchor="middle" x="393.5" y="-606.3" font-family="Times New Roman,serif" font-size="14.00">153103884</text>
</g>
<!-- 153103885 -->
<g id="node2" class="node">
<title>153103885</title>
<ellipse fill="none" stroke="red" cx="393.5" cy="-538" rx="50.09" ry="18"/>
<text text-anchor="middle" x="393.5" y="-534.3" font-family="Times New Roman,serif" font-size="14.00">153103885</text>
</g>
<!-- 153103884&#45;&gt;153103885 -->
<g id="edge9" class="edge">
<title>153103884&#45;&gt;153103885</title>
<path fill="none" stroke="black" d="M393.5,-591.7C393.5,-583.98 393.5,-574.71 393.5,-566.11"/>
<polygon fill="black" stroke="black" points="397,-566.1 393.5,-556.1 390,-566.1 397,-566.1"/>
</g>
<!-- 153103886 -->
<g id="node3" class="node">
<title>153103886</title>
<ellipse fill="none" stroke="red" cx="393.5" cy="-466" rx="50.09" ry="18"/>
<text text-anchor="middle" x="393.5" y="-462.3" font-family="Times New Roman,serif" font-size="14.00">153103886</text>
</g>
<!-- 153103885&#45;&gt;153103886 -->
<g id="edge10" class="edge">
<title>153103885&#45;&gt;153103886</title>
<path fill="none" stroke="black" d="M393.5,-519.7C393.5,-511.98 393.5,-502.71 393.5,-494.11"/>
<polygon fill="black" stroke="black" points="397,-494.1 393.5,-484.1 390,-494.1 397,-494.1"/>
</g>
<!-- 153103887 -->
<g id="node4" class="node">
<title>153103887</title>
<ellipse fill="none" stroke="red" cx="393.5" cy="-394" rx="50.09" ry="18"/>
<text text-anchor="middle" x="393.5" y="-390.3" font-family="Times New Roman,serif" font-size="14.00">153103887</text>
</g>
<!-- 153103886&#45;&gt;153103887 -->
<g id="edge11" class="edge">
<title>153103886&#45;&gt;153103887</title>
<path fill="none" stroke="black" d="M393.5,-447.7C393.5,-439.98 393.5,-430.71 393.5,-422.11"/>
<polygon fill="black" stroke="black" points="397,-422.1 393.5,-412.1 390,-422.1 397,-422.1"/>
</g>
<!-- 153103892 -->
<g id="node5" class="node">
<title>153103892</title>
<ellipse fill="none" stroke="red" cx="393.5" cy="-322" rx="50.09" ry="18"/>
<text text-anchor="middle" x="393.5" y="-318.3" font-family="Times New Roman,serif" font-size="14.00">153103892</text>
</g>
<!-- 153103887&#45;&gt;153103892 -->
<g id="edge12" class="edge">
<title>153103887&#45;&gt;153103892</title>
<path fill="none" stroke="black" d="M393.5,-375.7C393.5,-367.98 393.5,-358.71 393.5,-350.11"/>
<polygon fill="black" stroke="black" points="397,-350.1 393.5,-340.1 390,-350.1 397,-350.1"/>
</g>
<!-- 153103880 -->
<g id="node6" class="node">
<title>153103880</title>
<ellipse fill="none" stroke="black" cx="725.5" cy="-610" rx="50.09" ry="18"/>
<text text-anchor="middle" x="725.5" y="-606.3" font-family="Times New Roman,serif" font-size="14.00">153103880</text>
</g>
<!-- 153103881 -->
<g id="node7" class="node">
<title>153103881</title>
<ellipse fill="none" stroke="black" cx="725.5" cy="-538" rx="50.09" ry="18"/>
<text text-anchor="middle" x="725.5" y="-534.3" font-family="Times New Roman,serif" font-size="14.00">153103881</text>
</g>
<!-- 153103880&#45;&gt;153103881 -->
<g id="edge1" class="edge">
<title>153103880&#45;&gt;153103881</title>
<path fill="none" stroke="black" d="M725.5,-591.7C725.5,-583.98 725.5,-574.71 725.5,-566.11"/>
<polygon fill="black" stroke="black" points="729,-566.1 725.5,-556.1 722,-566.1 729,-566.1"/>
</g>
<!-- 153103882 -->
<g id="node8" class="node">
<title>153103882</title>
<ellipse fill="none" stroke="black" cx="725.5" cy="-466" rx="50.09" ry="18"/>
<text text-anchor="middle" x="725.5" y="-462.3" font-family="Times New Roman,serif" font-size="14.00">153103882</text>
</g>
<!-- 153103881&#45;&gt;153103882 -->
<g id="edge2" class="edge">
<title>153103881&#45;&gt;153103882</title>
<path fill="none" stroke="black" d="M725.5,-519.7C725.5,-511.98 725.5,-502.71 725.5,-494.11"/>
<polygon fill="black" stroke="black" points="729,-494.1 725.5,-484.1 722,-494.1 729,-494.1"/>
</g>
<!-- 153103883 -->
<g id="node9" class="node">
<title>153103883</title>
<ellipse fill="none" stroke="black" cx="725.5" cy="-394" rx="50.09" ry="18"/>
<text text-anchor="middle" x="725.5" y="-390.3" font-family="Times New Roman,serif" font-size="14.00">153103883</text>
</g>
<!-- 153103882&#45;&gt;153103883 -->
<g id="edge3" class="edge">
<title>153103882&#45;&gt;153103883</title>
<path fill="none" stroke="black" d="M725.5,-447.7C725.5,-439.98 725.5,-430.71 725.5,-422.11"/>
<polygon fill="black" stroke="black" points="729,-422.1 725.5,-412.1 722,-422.1 729,-422.1"/>
</g>
<!-- 153103888 -->
<g id="node10" class="node">
<title>153103888</title>
<ellipse fill="none" stroke="black" cx="725.5" cy="-322" rx="50.09" ry="18"/>
<text text-anchor="middle" x="725.5" y="-318.3" font-family="Times New Roman,serif" font-size="14.00">153103888</text>
</g>
<!-- 153103883&#45;&gt;153103888 -->
<g id="edge4" class="edge">
<title>153103883&#45;&gt;153103888</title>
<path fill="none" stroke="black" d="M725.5,-375.7C725.5,-367.98 725.5,-358.71 725.5,-350.11"/>
<polygon fill="black" stroke="black" points="729,-350.1 725.5,-340.1 722,-350.1 729,-350.1"/>
</g>
<!-- 153103889 -->
<g id="node11" class="node">
<title>153103889</title>
<ellipse fill="none" stroke="black" cx="725.5" cy="-250" rx="50.09" ry="18"/>
<text text-anchor="middle" x="725.5" y="-246.3" font-family="Times New Roman,serif" font-size="14.00">153103889</text>
</g>
<!-- 153103888&#45;&gt;153103889 -->
<g id="edge5" class="edge">
<title>153103888&#45;&gt;153103889</title>
<path fill="none" stroke="black" d="M725.5,-303.7C725.5,-295.98 725.5,-286.71 725.5,-278.11"/>
<polygon fill="black" stroke="black" points="729,-278.1 725.5,-268.1 722,-278.1 729,-278.1"/>
</g>
<!-- 153103890 -->
<g id="node12" class="node">
<title>153103890</title>
<ellipse fill="none" stroke="black" cx="725.5" cy="-178" rx="50.09" ry="18"/>
<text text-anchor="middle" x="725.5" y="-174.3" font-family="Times New Roman,serif" font-size="14.00">153103890</text>
</g>
<!-- 153103889&#45;&gt;153103890 -->
<g id="edge6" class="edge">
<title>153103889&#45;&gt;153103890</title>
<path fill="none" stroke="black" d="M725.5,-231.7C725.5,-223.98 725.5,-214.71 725.5,-206.11"/>
<polygon fill="black" stroke="black" points="729,-206.1 725.5,-196.1 722,-206.1 729,-206.1"/>
</g>
<!-- 153103891 -->
<g id="node13" class="node">
<title>153103891</title>
<ellipse fill="none" stroke="black" cx="725.5" cy="-106" rx="50.09" ry="18"/>
<text text-anchor="middle" x="725.5" y="-102.3" font-family="Times New Roman,serif" font-size="14.00">153103891</text>
</g>
<!-- 153103890&#45;&gt;153103891 -->
<g id="edge7" class="edge">
<title>153103890&#45;&gt;153103891</title>
<path fill="none" stroke="black" d="M725.5,-159.7C725.5,-151.98 725.5,-142.71 725.5,-134.11"/>
<polygon fill="black" stroke="black" points="729,-134.1 725.5,-124.1 722,-134.1 729,-134.1"/>
</g>
<!-- 153103895 -->
<g id="node14" class="node">
<title>153103895</title>
<ellipse fill="none" stroke="black" cx="725.5" cy="-34" rx="50.09" ry="18"/>
<text text-anchor="middle" x="725.5" y="-30.3" font-family="Times New Roman,serif" font-size="14.00">153103895</text>
</g>
<!-- 153103891&#45;&gt;153103895 -->
<g id="edge8" class="edge">
<title>153103891&#45;&gt;153103895</title>
<path fill="none" stroke="black" d="M725.5,-87.7C725.5,-79.98 725.5,-70.71 725.5,-62.11"/>
<polygon fill="black" stroke="black" points="729,-62.1 725.5,-52.1 722,-62.1 729,-62.1"/>
</g>
<!-- 153103878 -->
<g id="node15" class="node">
<title>153103878</title>
<ellipse fill="none" stroke="black" cx="461.5" cy="-757" rx="50.09" ry="18"/>
<text text-anchor="middle" x="461.5" y="-753.3" font-family="Times New Roman,serif" font-size="14.00">153103878</text>
</g>
<!-- 153103879 -->
<g id="node16" class="node">
<title>153103879</title>
<ellipse fill="none" stroke="black" cx="461.5" cy="-685" rx="50.09" ry="18"/>
<text text-anchor="middle" x="461.5" y="-681.3" font-family="Times New Roman,serif" font-size="14.00">153103879</text>
</g>
<!-- 153103878&#45;&gt;153103879 -->
<g id="edge13" class="edge">
<title>153103878&#45;&gt;153103879</title>
<path fill="none" stroke="black" d="M461.5,-738.7C461.5,-730.98 461.5,-721.71 461.5,-713.11"/>
<polygon fill="black" stroke="black" points="465,-713.1 461.5,-703.1 458,-713.1 465,-713.1"/>
</g>
<!-- 153103879&#45;&gt;153103884 -->
<g id="edge15" class="edge">
<title>153103879&#45;&gt;153103884</title>
<path fill="none" stroke="black" d="M446.41,-667.8C437.4,-658.13 425.8,-645.68 415.76,-634.9"/>
<polygon fill="black" stroke="black" points="418.16,-632.34 408.78,-627.41 413.04,-637.11 418.16,-632.34"/>
</g>
<!-- 153103879&#45;&gt;153103880 -->
<g id="edge14" class="edge">
<title>153103879&#45;&gt;153103880</title>
<path fill="none" stroke="black" d="M499.89,-673.39C546.81,-660.41 626.25,-638.44 677.26,-624.34"/>
<polygon fill="black" stroke="black" points="678.36,-627.67 687.07,-621.63 676.49,-620.92 678.36,-627.67"/>
</g>
<!-- vote_153103880 -->
<g id="node17" class="node">
<title>vote_153103880</title>
<polygon fill="none" stroke="blue" points="854,-703 597,-703 597,-667 854,-667 854,-703"/>
<text text-anchor="middle" x="725.5" y="-681.3" font-family="Times New Roman,serif" font-size="14.00">vote tx for 153103878, 153103879 [5Ac6g]</text>
</g>
<!-- vote_153103880&#45;&gt;153103880 -->
<g id="edge16" class="edge">
<title>vote_153103880&#45;&gt;153103880</title>
<path fill="none" stroke="grey" stroke-dasharray="5,2" d="M725.5,-666.7C725.5,-655.06 725.5,-639.79 725.5,-628.18"/>
</g>
<!-- vote_153103882 -->
<g id="node18" class="node">
<title>vote_153103882</title>
<polygon fill="none" stroke="blue" points="989.5,-556 793.5,-556 793.5,-520 989.5,-520 989.5,-556"/>
<text text-anchor="middle" x="891.5" y="-534.3" font-family="Times New Roman,serif" font-size="14.00">vote tx for 153103880 [KKZ6B]</text>
</g>
<!-- vote_153103882&#45;&gt;153103882 -->
<g id="edge17" class="edge">
<title>vote_153103882&#45;&gt;153103882</title>
<path fill="none" stroke="grey" stroke-dasharray="5,2" d="M850.89,-519.88C821.81,-507.61 783.23,-491.35 756.59,-480.11"/>
</g>
<!-- vote_153103887 -->
<g id="node19" class="node">
<title>vote_153103887</title>
<polygon fill="none" stroke="blue" points="657.5,-484 461.5,-484 461.5,-448 657.5,-448 657.5,-484"/>
<text text-anchor="middle" x="559.5" y="-462.3" font-family="Times New Roman,serif" font-size="14.00">vote tx for 153103884 [3Q9UX]</text>
</g>
<!-- vote_153103887&#45;&gt;153103887 -->
<g id="edge18" class="edge">
<title>vote_153103887&#45;&gt;153103887</title>
<path fill="none" stroke="grey" stroke-dasharray="5,2" d="M518.89,-447.88C489.81,-435.61 451.23,-419.35 424.59,-408.11"/>
</g>
<!-- vote_153103889 -->
<g id="node20" class="node">
<title>vote_153103889</title>
<polygon fill="none" stroke="blue" points="657.5,-340 465.5,-340 465.5,-304 657.5,-304 657.5,-340"/>
<text text-anchor="middle" x="561.5" y="-318.3" font-family="Times New Roman,serif" font-size="14.00">vote tx for 153103888 [3nWhz]</text>
</g>
<!-- vote_153103889&#45;&gt;153103889 -->
<g id="edge19" class="edge">
<title>vote_153103889&#45;&gt;153103889</title>
<path fill="none" stroke="grey" stroke-dasharray="5,2" d="M601.62,-303.88C630.26,-291.65 668.21,-275.45 694.53,-264.22"/>
</g>
<!-- vote_153103892 -->
<g id="node21" class="node">
<title>vote_153103892</title>
<polygon fill="none" stroke="red" stroke-width="5" points="325,-412 0,-412 0,-376 325,-376 325,-412"/>
<text text-anchor="middle" x="162.5" y="-390.3" font-family="Times New Roman,serif" font-size="14.00">vote tx for 153103885, 153103886, 153103887 [YejCo]</text>
</g>
<!-- vote_153103892&#45;&gt;153103892 -->
<g id="edge20" class="edge">
<title>vote_153103892&#45;&gt;153103892</title>
<path fill="none" stroke="grey" stroke-dasharray="5,2" d="M218.71,-375.97C261.58,-362.97 319.4,-345.45 356.57,-334.19"/>
</g>
</g>
</svg>
